<svg width="24" height="25" viewBox="0 0 24 25" fill="none" xmlns="http://www.w3.org/2000/svg">
<path fill-rule="evenodd" clip-rule="evenodd" d="M9.99979 2.72998C9.66848 2.72982 9.34393 2.82371 9.06388 3.00073C8.78383 3.17775 8.55978 3.43064 8.41779 3.72998C7.73379 3.73598 7.20179 3.76698 6.72579 3.95298C6.15756 4.17525 5.66338 4.55299 5.29979 5.04298C4.93279 5.53598 4.75979 6.16998 4.52379 7.04098L4.47679 7.21098L3.96379 10.175C3.77912 10.3023 3.61712 10.4553 3.47779 10.634C2.57679 11.787 3.00579 13.504 3.86379 16.935C4.40879 19.118 4.68179 20.209 5.49579 20.845C6.30979 21.48 7.43479 21.48 9.68479 21.48H14.3148C16.5648 21.48 17.6898 21.48 18.5038 20.845C19.3178 20.209 19.5898 19.118 20.1358 16.935C20.9938 13.503 21.4228 11.788 20.5218 10.634C20.3839 10.4567 20.2197 10.3016 20.0348 10.174L19.5218 7.21198L19.4758 7.04198C19.2388 6.16998 19.0658 5.53598 18.6998 5.04198C18.3361 4.55236 17.8419 4.17498 17.2738 3.95298C16.7978 3.76698 16.2648 3.73598 15.5818 3.73098C15.4399 3.43145 15.216 3.17836 14.9359 3.00115C14.6558 2.82395 14.3312 2.72991 13.9998 2.72998H9.99979ZM18.4178 9.62598L18.0558 7.53798C17.7728 6.49798 17.6698 6.17098 17.4958 5.93698C17.3 5.67309 17.0338 5.46966 16.7278 5.34998C16.5078 5.26398 16.2418 5.23898 15.5798 5.23198C15.4377 5.53064 15.2138 5.78291 14.9342 5.95954C14.6545 6.13618 14.3305 6.22994 13.9998 6.22998H9.99979C9.66903 6.22994 9.34506 6.13618 9.06542 5.95954C8.78578 5.78291 8.56192 5.53064 8.41979 5.23198C7.75679 5.23898 7.49179 5.26398 7.27179 5.34998C6.96575 5.46966 6.6996 5.67309 6.50379 5.93698C6.32979 6.17098 6.22679 6.49698 5.94379 7.53698L5.58179 9.62598C6.57979 9.47998 7.90979 9.47998 9.68479 9.47998H14.3148C16.0898 9.47998 17.4198 9.47998 18.4178 9.62598ZM7.99979 12.73C8.1987 12.73 8.38947 12.809 8.53012 12.9497C8.67077 13.0903 8.74979 13.2811 8.74979 13.48V17.48C8.74979 17.6789 8.67077 17.8697 8.53012 18.0103C8.38947 18.151 8.1987 18.23 7.99979 18.23C7.80088 18.23 7.61011 18.151 7.46946 18.0103C7.32881 17.8697 7.24979 17.6789 7.24979 17.48V13.48C7.24979 13.2811 7.32881 13.0903 7.46946 12.9497C7.61011 12.809 7.80088 12.73 7.99979 12.73ZM16.7498 13.48C16.7498 13.2811 16.6708 13.0903 16.5301 12.9497C16.3895 12.809 16.1987 12.73 15.9998 12.73C15.8009 12.73 15.6101 12.809 15.4695 12.9497C15.3288 13.0903 15.2498 13.2811 15.2498 13.48V17.48C15.2498 17.6789 15.3288 17.8697 15.4695 18.0103C15.6101 18.151 15.8009 18.23 15.9998 18.23C16.1987 18.23 16.3895 18.151 16.5301 18.0103C16.6708 17.8697 16.7498 17.6789 16.7498 17.48V13.48ZM11.9998 12.73C12.1987 12.73 12.3895 12.809 12.5301 12.9497C12.6708 13.0903 12.7498 13.2811 12.7498 13.48V17.48C12.7498 17.6789 12.6708 17.8697 12.5301 18.0103C12.3895 18.151 12.1987 18.23 11.9998 18.23C11.8009 18.23 11.6101 18.151 11.4695 18.0103C11.3288 17.8697 11.2498 17.6789 11.2498 17.48V13.48C11.2498 13.2811 11.3288 13.0903 11.4695 12.9497C11.6101 12.809 11.8009 12.73 11.9998 12.73Z" fill="#CA7991"/>
</svg>
