<svg width="21" height="19" viewBox="0 0 21 19" fill="none" xmlns="http://www.w3.org/2000/svg">
<path d="M10.5017 2.25026C11.6443 1.25482 13.1349 0.723159 14.6675 0.764444C16.2 0.805729 17.6582 1.41683 18.7426 2.47226C19.8258 3.52694 20.4537 4.94516 20.4975 6.4362C20.5414 7.92724 19.9979 9.37815 18.9785 10.4915L10.4997 18.76L2.02277 10.4915C1.00216 9.37757 0.458184 7.92542 0.502511 6.43318C0.546838 4.94094 1.17611 3.52184 2.26114 2.46722C3.34616 1.4126 4.80462 0.802494 6.33707 0.762146C7.86952 0.721798 9.35969 1.25427 10.5017 2.25026ZM17.3268 3.84807C16.6042 3.14562 15.6331 2.73888 14.6125 2.71118C13.5919 2.68348 12.5991 3.03693 11.8375 3.6991L10.5027 4.86557L9.16683 3.70007C8.4086 3.03981 7.42052 2.68568 6.40366 2.70976C5.3868 2.73383 4.41756 3.1343 3.69318 3.82966C2.96879 4.52503 2.54369 5.46304 2.50439 6.45282C2.46508 7.44261 2.81451 8.40979 3.48158 9.15756L10.5007 16.0035L17.5197 9.15853C18.184 8.41406 18.5335 7.4519 18.4977 6.46627C18.4619 5.48065 18.0434 4.54495 17.3268 3.84807Z" fill="#CA7991"/>
</svg>
