<svg width="21" height="19" viewBox="0 0 21 19" fill="none" xmlns="http://www.w3.org/2000/svg">
<path d="M10.5 2.91287L9.88315 2.3018C8.8314 1.30009 7.43331 0.750832 5.98588 0.770716C4.53846 0.7906 3.15576 1.37806 2.13153 2.40829C1.10729 3.43852 0.522225 4.83035 0.50062 6.28809C0.479016 7.74583 1.02257 9.15462 2.01582 10.2152L10.5 18.76L18.9842 10.205C19.9774 9.14444 20.521 7.73565 20.4994 6.2779C20.4778 4.82016 19.8927 3.42834 18.8685 2.3981C17.8442 1.36787 16.4615 0.780415 15.0141 0.760531C13.5667 0.740647 12.1686 1.2899 11.1168 2.29162L10.5 2.91287Z" fill="#CA7991"/>
</svg>
