<svg width="18" height="19" viewBox="0 0 18 19" fill="none" xmlns="http://www.w3.org/2000/svg">
<path d="M9 5.47998C9.14918 5.47998 9.29226 5.53924 9.39775 5.64473C9.50324 5.75022 9.5625 5.8933 9.5625 6.04248V9.41748H12.9375C13.0867 9.41748 13.2298 9.47674 13.3352 9.58223C13.4407 9.68772 13.5 9.8308 13.5 9.97998C13.5 10.1292 13.4407 10.2722 13.3352 10.3777C13.2298 10.4832 13.0867 10.5425 12.9375 10.5425H9.5625V13.9175C9.5625 14.0667 9.50324 14.2097 9.39775 14.3152C9.29226 14.4207 9.14918 14.48 9 14.48C8.85082 14.48 8.70774 14.4207 8.60225 14.3152C8.49676 14.2097 8.4375 14.0667 8.4375 13.9175V10.5425H5.0625C4.91332 10.5425 4.77024 10.4832 4.66475 10.3777C4.55926 10.2722 4.5 10.1292 4.5 9.97998C4.5 9.8308 4.55926 9.68772 4.66475 9.58223C4.77024 9.47674 4.91332 9.41748 5.0625 9.41748H8.4375V6.04248C8.4375 5.8933 8.49676 5.75022 8.60225 5.64473C8.70774 5.53924 8.85082 5.47998 9 5.47998Z" fill="#CA7991"/>
</svg>
