<svg width="24" height="25" viewBox="0 0 24 25" fill="none" xmlns="http://www.w3.org/2000/svg">
<path d="M7 21.48C6.45 21.48 5.97934 21.2843 5.588 20.893C5.19667 20.5016 5.00067 20.0306 5 19.48V6.47998C4.71667 6.47998 4.47934 6.38398 4.288 6.19198C4.09667 5.99998 4.00067 5.76265 4 5.47998C3.99934 5.19731 4.09534 4.95998 4.288 4.76798C4.48067 4.57598 4.718 4.47998 5 4.47998H9C9 4.19665 9.096 3.95931 9.288 3.76798C9.48 3.57665 9.71734 3.48065 10 3.47998H14C14.2833 3.47998 14.521 3.57598 14.713 3.76798C14.905 3.95998 15.0007 4.19731 15 4.47998H19C19.2833 4.47998 19.521 4.57598 19.713 4.76798C19.905 4.95998 20.0007 5.19731 20 5.47998C19.9993 5.76265 19.9033 6.00031 19.712 6.19298C19.5207 6.38565 19.2833 6.48131 19 6.47998V19.48C19 20.03 18.8043 20.501 18.413 20.893C18.0217 21.285 17.5507 21.4806 17 21.48H7ZM17 6.47998H7V19.48H17V6.47998ZM10 17.48C10.2833 17.48 10.521 17.384 10.713 17.192C10.905 17 11.0007 16.7626 11 16.48V9.47998C11 9.19665 10.904 8.95931 10.712 8.76798C10.52 8.57665 10.2827 8.48065 10 8.47998C9.71734 8.47931 9.48 8.57531 9.288 8.76798C9.096 8.96065 9 9.19798 9 9.47998V16.48C9 16.7633 9.096 17.001 9.288 17.193C9.48 17.385 9.71734 17.4806 10 17.48ZM14 17.48C14.2833 17.48 14.521 17.384 14.713 17.192C14.905 17 15.0007 16.7626 15 16.48V9.47998C15 9.19665 14.904 8.95931 14.712 8.76798C14.52 8.57665 14.2827 8.48065 14 8.47998C13.7173 8.47931 13.48 8.57531 13.288 8.76798C13.096 8.96065 13 9.19798 13 9.47998V16.48C13 16.7633 13.096 17.001 13.288 17.193C13.48 17.385 13.7173 17.4806 14 17.48Z" fill="#CA7991"/>
</svg>
